<svg xmlns="http://www.w3.org/2000/svg" width="2055.79" height="199.62" viewBox="0 0 2055.79 199.62">
  <g>
    <path d="M45.07,172.71v14.6H22.87v-2h3.2a15.11,15.11,0,0,0,9.6-3.3,13.55,13.55,0,0,0,5-9.3Zm12.2-128.2h1.8l7,20-13.4,122.8H38.87Zm-3.4,131.4v1a8.91,8.91,0,0,0,2.3,5.9,7,7,0,0,0,5.5,2.7h3.2v1.8H52.47v-11.4Zm5.2-131.4,65.4,107.4-11.4,39.4-59.2-99.4Zm121.6,0,1.6,21.8-59.4,103a88.81,88.81,0,0,0-5.9,12,28,28,0,0,0-1.9,10h-2l-7.8-17.4Zm-12.6,131.4h1.4v11.4h-12.2v-1.8h3a6.91,6.91,0,0,0,5.6-2.7,9.11,9.11,0,0,0,2.2-5.9v-1Zm14.4-131.4,19,142.8h-32.2l-10-92,21.4-50.8Zm12.8,128.2h4.2a14.32,14.32,0,0,0,5.2,9.3,14.83,14.83,0,0,0,9.4,3.3h3.2v2h-22Z" transform="translate(-22.87 -43.31)" style="fill: #fcfcfc"/>
    <path d="M233.87,47.31v12h-.6a9.29,9.29,0,0,0-3.1-7.2,10.84,10.84,0,0,0-7.5-2.8h-3.2v-2Zm29.4,0v88q0,14.2,4.7,24.6a36.09,36.09,0,0,0,13.4,16q8.7,5.61,20.7,5.6,12.19,0,21.1-5.3a35,35,0,0,0,13.7-15.1q4.8-9.8,4.8-23.2V47.31h14.4v89.4q0,16.41-6.9,28.4a46.23,46.23,0,0,1-19.8,18.5q-12.9,6.51-31.1,6.5-21.21,0-35.8-6.5t-21.9-18.4q-7.31-11.9-7.3-28.3V47.31Zm13.8,0v2h-3.2a10.8,10.8,0,0,0-7.5,2.8,9.26,9.26,0,0,0-3.1,7.2h-.4v-12Zm65.2,0v12h-.6a9.29,9.29,0,0,0-3.1-7.2,10.84,10.84,0,0,0-7.5-2.8h-3.2v-2Zm27.6,0v2h-3.2a10.8,10.8,0,0,0-7.5,2.8,9.26,9.26,0,0,0-3.1,7.2h-.4v-12Z" transform="translate(-22.87 -43.31)" style="fill: #fcfcfc"/>
    <path d="M395.67,172.71q-1.6,4-.6,6.8a8.13,8.13,0,0,0,3.4,4.3,9,9,0,0,0,4.8,1.5h1.8v2h-42.8v-2h1.8a18.58,18.58,0,0,0,9.5-2.9q4.9-2.9,8.1-9.7Zm43-129.4.8,24.4-49.6,119h-14.6l51.8-117.2q.6-1.2,2.1-4.5t3.2-7.5c1.13-2.8,2.17-5.5,3.1-8.1a19.61,19.61,0,0,0,1.4-6.1Zm21,96.4v8.4h-58.8v-8.4Zm-21-96.4,65.2,142.8h-35.8l-41.6-104.2Zm24,129.4h35q3.4,6.81,8.2,9.7a18.06,18.06,0,0,0,9.4,2.9h1.6v2h-63.6v-2h1.8a9.19,9.19,0,0,0,7-3.3Q465.07,178.71,462.67,172.71Z" transform="translate(-22.87 -43.31)" style="fill: #fcfcfc"/>
    <path d="M535.67,61.91h-.6a12.91,12.91,0,0,0-3.9-8.9,12.16,12.16,0,0,0-8.9-3.7h-2.6v-2h16Zm0,110.8v14.6h-16v-2h2.6a12.12,12.12,0,0,0,8.9-3.7,12.87,12.87,0,0,0,3.9-8.9Zm29.4-125.4v140h-30v-140Zm-.6,14.6V47.31h16v2h-2.6A12.16,12.16,0,0,0,569,53a12.86,12.86,0,0,0-3.9,8.9Zm53.4,116.8,4.8,8.6h-58.2v-8.6Zm14.6-32.2-9.2,40.8h-39.2l7.2-8.6a38,38,0,0,0,17.6-3.9,37.13,37.13,0,0,0,13-11.2,59.63,59.63,0,0,0,8.6-17.1Z" transform="translate(-22.87 -43.31)" style="fill: #fcfcfc"/>
    <path d="M657.87,61.91h-.6a13,13,0,0,0-3.9-8.9,12.18,12.18,0,0,0-8.9-3.7h-2.6v-2h16Zm0,110.8v14.6h-16v-2h2.6a12.14,12.14,0,0,0,8.9-3.7,12.91,12.91,0,0,0,3.9-8.9Zm29.4-125.4v140h-30v-140Zm-.6,14.6V47.31h16v2h-2.6a12.14,12.14,0,0,0-8.9,3.7,12.86,12.86,0,0,0-3.9,8.9Zm0,110.8h.6a12.83,12.83,0,0,0,3.9,8.9,12.1,12.1,0,0,0,8.9,3.7h2.6v2h-16Z" transform="translate(-22.87 -43.31)" style="fill: #fcfcfc"/>
    <path d="M731.27,172.71v14.6h-22.2v-2h3.2a15.11,15.11,0,0,0,9.6-3.3,13.59,13.59,0,0,0,5-9.3Zm12.2-128.2h1.8l7,20-13.4,122.8h-13.8Zm-3.4,131.4v1a8.86,8.86,0,0,0,2.3,5.9,7,7,0,0,0,5.5,2.7h3.2v1.8h-12.4v-11.4Zm5.2-131.4,65.4,107.4-11.4,39.4-59.2-99.4Zm121.6,0,1.6,21.8-59.4,103a87.62,87.62,0,0,0-5.9,12,28,28,0,0,0-1.9,10h-2l-7.8-17.4Zm-12.6,131.4h1.4v11.4h-12.2v-1.8h3a6.93,6.93,0,0,0,5.6-2.7,9.16,9.16,0,0,0,2.2-5.9v-1Zm14.4-131.4,19,142.8h-32.2l-10-92,21.4-50.8Zm12.8,128.2h4.2a14.28,14.28,0,0,0,5.2,9.3,14.83,14.83,0,0,0,9.4,3.3h3.2v2h-22Z" transform="translate(-22.87 -43.31)" style="fill: #fcfcfc"/>
    <path d="M973.46,47.31v12h-.59a9.27,9.27,0,0,0-3.11-7.2,10.8,10.8,0,0,0-7.5-2.8h-3.2v-2Zm29.41,0v88q0,14.2,4.69,24.6a36.22,36.22,0,0,0,13.4,16q8.7,5.61,20.71,5.6,12.19,0,21.09-5.3a35,35,0,0,0,13.7-15.1q4.82-9.8,4.8-23.2V47.31h14.41v89.4q0,16.41-6.91,28.4a46.18,46.18,0,0,1-19.8,18.5q-12.89,6.51-31.09,6.5-21.21,0-35.81-6.5t-21.89-18.4q-7.3-11.9-7.3-28.3V47.31Zm13.8,0v2h-3.21a10.84,10.84,0,0,0-7.5,2.8,9.29,9.29,0,0,0-3.09,7.2h-.41v-12Zm65.2,0v12h-.61a9.29,9.29,0,0,0-3.09-7.2,10.84,10.84,0,0,0-7.5-2.8h-3.21v-2Zm27.59,0v2h-3.2a10.84,10.84,0,0,0-7.5,2.8,9.29,9.29,0,0,0-3.09,7.2h-.41v-12Z" transform="translate(-22.87 -43.31)" style="fill: #fcfcfc"/>
    <path d="M1137.27,61.91h-.6a13,13,0,0,0-3.9-8.9,12.18,12.18,0,0,0-8.9-3.7h-2.6v-2h16Zm0,110.8v14.6h-16v-2h2.6a12.14,12.14,0,0,0,8.9-3.7,12.91,12.91,0,0,0,3.9-8.9Zm29.4-125.4v140h-30v-140Zm-.6,14.6V47.31h16v2h-2.61a12.14,12.14,0,0,0-8.89,3.7,12.86,12.86,0,0,0-3.9,8.9Zm53.39,116.8,4.81,8.6h-58.2v-8.6Zm14.61-32.2-9.2,40.8h-39.2l7.2-8.6a38,38,0,0,0,17.59-3.9,37,37,0,0,0,13-11.2,59.39,59.39,0,0,0,8.61-17.1Z" transform="translate(-22.87 -43.31)" style="fill: #fcfcfc"/>
    <path d="M1374.46,44.51q24,0,41.7,8.9a64.73,64.73,0,0,1,27.3,25.1q9.6,16.2,9.6,38.8,0,22.41-9.6,38.7a64.31,64.31,0,0,1-27.4,25.2q-17.79,8.91-41.6,8.9-24,0-41.7-8.9a64.67,64.67,0,0,1-27.3-25.1q-9.6-16.2-9.6-38.8,0-22.4,9.6-38.7a64.57,64.57,0,0,1,27.3-25.2Q1350.46,44.52,1374.46,44.51Zm0,137.2q14.2,0,24.5-7.9t15.8-22.3q5.51-14.4,5.5-34.2t-5.5-34.2q-5.51-14.4-15.8-22.3t-24.5-7.9q-14.19,0-24.5,7.9t-15.9,22.3q-5.6,14.4-5.6,34.2t5.7,34.2q5.7,14.4,16,22.3A38.77,38.77,0,0,0,1374.46,181.71Zm-1.2,8.4-5.8-8q11.61.81,21,2.1t17.8,3.2q8.4,1.91,16.9,4.7t18.4,6.4q9.9,3.6,22.3,8.4a145.67,145.67,0,0,0,26.5,7.6,109,109,0,0,0,25.1,1.8,80.41,80.41,0,0,0,22.4-4.2,59,59,0,0,0,18.6-10.4l1.2.8a35.64,35.64,0,0,1-6,17.6,46,46,0,0,1-15,14A62.55,62.55,0,0,1,1514,242a88.48,88.48,0,0,1-28.9-.6q-15.8-2.7-33.6-11.7a215.71,215.71,0,0,1-21.2-12.1q-10-6.5-19.5-12.5a147.94,147.94,0,0,0-18.7-10.1A57.92,57.92,0,0,0,1373.26,190.11Z" transform="translate(-22.87 -43.31)" style="fill: #fcfcfc"/>
    <path d="M1481.86,47.31v12h-.6a9.26,9.26,0,0,0-3.1-7.2,10.84,10.84,0,0,0-7.5-2.8h-3.2v-2Zm29.4,0v88q0,14.2,4.7,24.6a36.09,36.09,0,0,0,13.4,16q8.7,5.61,20.7,5.6,12.2,0,21.1-5.3a35,35,0,0,0,13.7-15.1q4.8-9.8,4.8-23.2V47.31h14.4v89.4q0,16.41-6.9,28.4a46.23,46.23,0,0,1-19.8,18.5q-12.9,6.51-31.1,6.5-21.19,0-35.8-6.5t-21.9-18.4q-7.3-11.9-7.3-28.3V47.31Zm13.8,0v2h-3.2a10.84,10.84,0,0,0-7.5,2.8,9.26,9.26,0,0,0-3.1,7.2h-.4v-12Zm65.2,0v12h-.6a9.26,9.26,0,0,0-3.1-7.2,10.84,10.84,0,0,0-7.5-2.8h-3.2v-2Zm27.6,0v2h-3.2a10.84,10.84,0,0,0-7.5,2.8,9.26,9.26,0,0,0-3.1,7.2h-.4v-12Z" transform="translate(-22.87 -43.31)" style="fill: #fcfcfc"/>
    <path d="M1646.26,61.91h-.6a12.86,12.86,0,0,0-3.9-8.9,12.16,12.16,0,0,0-8.9-3.7h-2.6v-2h16Zm0,110.8v14.6h-16v-2h2.6a12.12,12.12,0,0,0,8.9-3.7,12.83,12.83,0,0,0,3.9-8.9Zm29.4-125.4v140h-30v-140Zm23.2,0a77.61,77.61,0,0,1,17.6,2,47.19,47.19,0,0,1,15.3,6.4,32.61,32.61,0,0,1,10.7,11.6q4,7.2,4,17.8a42.71,42.71,0,0,1-3.5,16.7,36.37,36.37,0,0,1-10.7,14.2q-7.2,5.91-18.6,7.1a29.07,29.07,0,0,1,11.7,7.2,63.89,63.89,0,0,1,8.7,10.4c.14.27.9,1.47,2.3,3.6s3.14,4.77,5.2,7.9,4.23,6.3,6.5,9.5,4.33,6,6.2,8.4a84.08,84.08,0,0,0,8,8.7,23.54,23.54,0,0,0,7.6,4.8,29.27,29.27,0,0,0,9.2,1.7v2h-19.6a88.23,88.23,0,0,1-19.6-2,46.73,46.73,0,0,1-15.6-6.5,40.94,40.94,0,0,1-11.8-12.3,63.05,63.05,0,0,1-3.5-6.1c-1.26-2.46-2.57-5.1-3.9-7.9s-2.63-5.5-3.9-8.1-2.37-5-3.3-7.1-1.6-3.8-2-5a26.31,26.31,0,0,0-6.1-9.6,14.18,14.18,0,0,0-7.5-3.8v-2h6.2a26.2,26.2,0,0,0,10.5-2.2,23.62,23.62,0,0,0,9.1-7.2q4-5,5.6-13.8c.27-1.2.5-2.6.7-4.2a28.8,28.8,0,0,0,.1-5.4q-.6-14.4-7.2-21.1a22.85,22.85,0,0,0-16.4-6.9c-1.86-.13-3.9-.16-6.1-.1s-4.2.1-6,.1h-3.7c0-.13-.17-.9-.5-2.3s-.83-3.56-1.5-6.5Zm-23.8,125.4h.6a12,12,0,0,0,3.8,8.9,12.48,12.48,0,0,0,9,3.7h2.4v2h-15.8Z" transform="translate(-22.87 -43.31)" style="fill: #fcfcfc"/>
    <path d="M1796.06,172.71q-1.59,4-.6,6.8a8.13,8.13,0,0,0,3.4,4.3,9,9,0,0,0,4.81,1.5h1.79v2h-42.79v-2h1.79a18.55,18.55,0,0,0,9.5-2.9q4.9-2.9,8.1-9.7Zm43-129.4.8,24.4-49.6,119h-14.59l51.79-117.2q.6-1.2,2.1-4.5t3.2-7.5q1.71-4.2,3.1-8.1a19.33,19.33,0,0,0,1.4-6.1Zm21,96.4v8.4h-58.8v-8.4Zm-21-96.4,65.2,142.8h-35.8l-41.6-104.2Zm24,129.4h35q3.4,6.81,8.2,9.7a18.09,18.09,0,0,0,9.41,2.9h1.59v2h-63.59v-2h1.79a9.19,9.19,0,0,0,7-3.3C1864.46,179.81,1864.67,176.71,1863.06,172.71Z" transform="translate(-22.87 -43.31)" style="fill: #fcfcfc"/>
    <path d="M1934.26,173.11v14.2h-16.6v-2h3.8a12.29,12.29,0,0,0,12.2-12.2Zm-1-128.8,28.8,30.6.2,112.4h-28.6v-118a147.2,147.2,0,0,0-2.4-25Zm0,0,127.6,121.6,2.4,24.2-127.6-121.4Zm29,128.8a12.29,12.29,0,0,0,12.2,12.2h3.8v2h-16.6v-14.2Zm55.8-125.8h16.6v14.2h-.4a12.56,12.56,0,0,0-3.7-8.7,11.81,11.81,0,0,0-8.7-3.5h-3.8Zm44.6,0v117.2a132.41,132.41,0,0,0,.6,13.3q.6,5.91,1.8,12.3h-1.8l-29-32.4V47.31Zm16,0v2h-3.6a11.93,11.93,0,0,0-8.6,3.5,12.35,12.35,0,0,0-3.8,8.7h-.6V47.31Z" transform="translate(-22.87 -43.31)" style="fill: #fcfcfc"/>
  </g>
</svg>
